<svg width="426" height="426" viewBox="0 0 426 426" fill="none" xmlns="http://www.w3.org/2000/svg">
<g id="Final logo 1">
<g id="Group">
<g id="fatha">
<g id="&#217;&#142;">
<path d="M235.937 175.891L235.011 174.079L241.343 168.598L242.285 170.443L235.937 175.891Z" fill="#FF9933"/>
<path d="M235.937 175.891L235.823 175.942L235.899 176.091L236.023 175.984L235.937 175.891ZM235.011 174.079L234.925 173.986L234.855 174.047L234.897 174.13L235.011 174.079ZM241.343 168.598L241.457 168.547L241.381 168.398L241.256 168.506L241.343 168.598ZM242.285 170.443L242.371 170.536L242.442 170.476L242.399 170.392L242.285 170.443ZM236.051 175.84L235.126 174.027L234.897 174.13L235.823 175.942L236.051 175.84ZM235.098 174.171L241.43 168.691L241.256 168.506L234.925 173.986L235.098 174.171ZM241.229 168.65L242.171 170.495L242.399 170.392L241.457 168.547L241.229 168.65ZM242.198 170.351L235.851 175.798L236.023 175.984L242.371 170.536L242.198 170.351Z" fill="black"/>
</g>
<g id="&#217;&#142;_2">
<path d="M182.276 171.143L181.282 169.367L187.412 163.671L188.424 165.479L182.276 171.143Z" fill="#FF9933"/>
<path d="M182.276 171.143L182.164 171.199L182.245 171.344L182.366 171.233L182.276 171.143ZM181.282 169.367L181.192 169.278L181.125 169.341L181.17 169.422L181.282 169.367ZM187.412 163.671L187.524 163.616L187.443 163.47L187.322 163.582L187.412 163.671ZM188.424 165.479L188.513 165.568L188.581 165.506L188.536 165.424L188.424 165.479ZM182.388 171.088L181.394 169.312L181.17 169.422L182.164 171.199L182.388 171.088ZM181.372 169.456L187.502 163.76L187.322 163.582L181.192 169.278L181.372 169.456ZM187.3 163.726L188.312 165.534L188.536 165.424L187.524 163.616L187.3 163.726ZM188.334 165.39L182.186 171.054L182.366 171.233L188.513 165.568L188.334 165.39Z" fill="black"/>
</g>
<g id="&#217;&#143;">
<path d="M276.169 164.861L275.842 163.118C277.489 162.997 278.82 162.742 279.837 162.355C280.879 161.967 281.629 161.507 282.089 160.975C282.574 160.418 282.816 159.861 282.816 159.304C282.816 158.868 282.719 158.505 282.525 158.214C282.331 157.924 282.041 157.778 281.653 157.778C281.29 157.778 280.988 157.912 280.745 158.178C280.503 158.42 280.382 158.723 280.382 159.086C280.382 159.546 280.576 159.982 280.963 160.393C281.351 160.781 281.835 161.071 282.416 161.265L281.29 162.427C280.515 162.137 279.85 161.713 279.293 161.156C278.76 160.599 278.494 159.909 278.494 159.086C278.494 158.238 278.784 157.5 279.365 156.87C279.971 156.241 280.758 155.926 281.726 155.926C282.695 155.926 283.421 156.265 283.905 156.943C284.414 157.597 284.668 158.347 284.668 159.195C284.668 160.26 284.317 161.205 283.615 162.028C282.913 162.851 281.92 163.505 280.636 163.989C279.377 164.474 277.888 164.764 276.169 164.861Z" fill="#FF9933"/>
<path d="M276.169 164.861L276.045 164.884L276.065 164.994L276.176 164.987L276.169 164.861ZM275.842 163.118L275.833 162.991L275.692 163.002L275.718 163.141L275.842 163.118ZM279.837 162.355L279.793 162.236L279.792 162.237L279.837 162.355ZM282.089 160.975L281.994 160.892L281.994 160.892L282.089 160.975ZM282.525 158.214L282.631 158.144L282.631 158.144L282.525 158.214ZM280.745 158.178L280.835 158.268L280.839 158.263L280.745 158.178ZM280.963 160.393L280.871 160.48L280.874 160.483L280.963 160.393ZM282.416 161.265L282.507 161.353L282.647 161.209L282.456 161.145L282.416 161.265ZM281.29 162.427L281.246 162.546L281.323 162.575L281.381 162.516L281.29 162.427ZM279.293 161.156L279.201 161.244L279.203 161.246L279.293 161.156ZM279.365 156.87L279.274 156.783L279.272 156.784L279.365 156.87ZM283.905 156.943L283.802 157.017L283.805 157.021L283.905 156.943ZM283.615 162.028L283.519 161.946L283.519 161.946L283.615 162.028ZM280.636 163.989L280.592 163.871L280.591 163.871L280.636 163.989ZM276.293 164.838L275.967 163.094L275.718 163.141L276.045 164.884L276.293 164.838ZM275.851 163.244C277.505 163.122 278.85 162.867 279.882 162.473L279.792 162.237C278.791 162.618 277.473 162.871 275.833 162.991L275.851 163.244ZM279.882 162.473C280.932 162.083 281.705 161.613 282.185 161.057L281.994 160.892C281.553 161.402 280.825 161.852 279.793 162.236L279.882 162.473ZM282.185 161.058C282.683 160.485 282.942 159.9 282.942 159.304H282.689C282.689 159.821 282.465 160.35 281.994 160.892L282.185 161.058ZM282.942 159.304C282.942 158.849 282.841 158.46 282.631 158.144L282.42 158.284C282.597 158.55 282.689 158.887 282.689 159.304H282.942ZM282.631 158.144C282.41 157.814 282.078 157.652 281.653 157.652V157.905C282.004 157.905 282.252 158.033 282.42 158.284L282.631 158.144ZM281.653 157.652C281.255 157.652 280.918 157.8 280.652 158.093L280.839 158.263C281.057 158.023 281.326 157.905 281.653 157.905V157.652ZM280.656 158.088C280.388 158.356 280.256 158.691 280.256 159.086H280.509C280.509 158.754 280.618 158.484 280.835 158.267L280.656 158.088ZM280.256 159.086C280.256 159.585 280.467 160.051 280.871 160.48L281.056 160.307C280.685 159.913 280.509 159.507 280.509 159.086H280.256ZM280.874 160.483C281.277 160.886 281.779 161.186 282.376 161.385L282.456 161.145C281.892 160.957 281.425 160.676 281.053 160.304L280.874 160.483ZM282.325 161.177L281.199 162.339L281.381 162.516L282.507 161.353L282.325 161.177ZM281.335 162.309C280.576 162.024 279.926 161.61 279.382 161.067L279.203 161.246C279.773 161.816 280.455 162.249 281.246 162.546L281.335 162.309ZM279.384 161.069C278.876 160.537 278.62 159.879 278.62 159.086H278.367C278.367 159.939 278.644 160.662 279.201 161.244L279.384 161.069ZM278.62 159.086C278.62 158.271 278.898 157.563 279.458 156.956L279.272 156.784C278.67 157.437 278.367 158.206 278.367 159.086H278.62ZM279.456 156.958C280.035 156.356 280.788 156.053 281.726 156.053V155.799C280.727 155.799 279.906 156.125 279.274 156.783L279.456 156.958ZM281.726 156.053C282.661 156.053 283.346 156.378 283.802 157.017L284.008 156.869C283.496 156.152 282.728 155.799 281.726 155.799V156.053ZM283.805 157.021C284.296 157.652 284.542 158.375 284.542 159.195H284.795C284.795 158.32 284.532 157.542 284.005 156.865L283.805 157.021ZM284.542 159.195C284.542 160.23 284.202 161.145 283.519 161.946L283.711 162.11C284.433 161.264 284.795 160.291 284.795 159.195H284.542ZM283.519 161.946C282.833 162.749 281.86 163.392 280.592 163.871L280.681 164.108C281.979 163.618 282.992 162.953 283.711 162.11L283.519 161.946ZM280.591 163.871C279.347 164.35 277.871 164.638 276.162 164.735L276.176 164.987C277.905 164.89 279.408 164.598 280.682 164.107L280.591 163.871Z" fill="black"/>
</g>
</g>
<g id="luqatah">
<path id="Vector" d="M141.44 239.224H231.14H238.98" stroke="black" stroke-width="9" stroke-miterlimit="10"/>
<path id="Vector_2" d="M161.4 225.924V228.634C161.4 229.864 161.16 231.044 160.73 232.144C159.61 235.024 157.12 237.274 154.02 238.224C153 238.534 151.92 238.694 150.78 238.694H140.6C136.04 238.694 132.16 235.964 130.67 232.144C130.23 231.044 130 229.864 130 228.634V225.924C130 220.364 134.74 215.854 140.6 215.854H150.78C156.65 215.864 161.4 220.364 161.4 225.924Z" stroke="black" stroke-width="10" stroke-miterlimit="10"/>
<path id="Vector_3" d="M212.08 237.274H187.53C181.58 237.274 176.76 232.454 176.76 226.504C176.76 220.554 181.58 215.734 187.53 215.734H212.08C218.03 215.734 222.85 220.554 222.85 226.504C222.85 232.444 218.03 237.274 212.08 237.274Z" stroke="black" stroke-width="10" stroke-miterlimit="10"/>
<path id="Vector_4" d="M295.44 176.184V234.154C295.44 235.664 295.05 237.104 294.34 238.374C294.19 238.674 294 238.954 293.82 239.234C292.46 241.174 290.36 242.644 287.87 243.324C287.85 243.334 287.82 243.334 287.78 243.344C286.82 243.594 285.8 243.734 284.74 243.734H266V242.294C266.22 242.054 266.45 241.804 266.66 241.554C268.09 239.854 269.09 237.834 269.51 235.634C269.67 234.814 269.75 233.984 269.75 233.124C269.75 232.994 269.75 232.864 269.74 232.734H277.64C278.06 232.734 278.47 232.684 278.87 232.594C278.97 232.574 279.06 232.544 279.14 232.524C281.09 232.014 282.59 230.504 283.02 228.604C283.11 228.234 283.16 227.854 283.16 227.464V176.184H295.44Z" fill="black"/>
<path id="Vector_5" d="M181.34 176.184H170.03V238.224H181.34V176.184Z" fill="black"/>
<path id="Vector_6" d="M150.59 208.684H147.17C146.16 208.684 145.34 207.864 145.34 206.854V206.714C145.34 205.704 146.16 204.884 147.17 204.884H150.59C151.6 204.884 152.42 205.704 152.42 206.714V206.854C152.43 207.864 151.61 208.684 150.59 208.684Z" fill="black"/>
<path id="Vector_7" d="M142.25 208.684H138.83C137.82 208.684 137 207.864 137 206.854V206.714C137 205.704 137.82 204.884 138.83 204.884H142.25C143.26 204.884 144.08 205.704 144.08 206.714V206.854C144.08 207.864 143.26 208.684 142.25 208.684Z" fill="black"/>
</g>
<g id="markerMap">
<path id="Vector_8" d="M254.99 274.724C264.616 274.724 272.42 271.554 272.42 267.644C272.42 263.734 264.616 260.564 254.99 260.564C245.364 260.564 237.56 263.734 237.56 267.644C237.56 271.554 245.364 274.724 254.99 274.724Z" fill="#CCCCCC"/>
<path id="Vector_9" d="M278.58 231.254C277.71 220.384 267.81 211.624 255.73 211.034C241.95 210.344 230.56 220.024 230.12 232.144C230.1 232.454 230.1 232.754 230.1 233.074C230.12 234.844 230.37 236.564 230.83 238.224C230.92 238.564 231.03 238.894 231.14 239.224C231.57 240.504 232.12 241.724 232.79 242.884C235.12 246.944 238.81 250.254 243.32 252.334L249.28 260.824L249.33 260.894L253.69 267.114C254.17 267.834 255.32 267.824 255.8 267.104L259.91 260.994L259.92 260.984L265.9 252.114C268.51 250.844 270.82 249.164 272.74 247.154L272.79 247.124L272.78 247.104C273.1 246.774 273.4 246.444 273.7 246.094C274.46 245.204 275.13 244.264 275.7 243.274C275.78 243.144 275.85 243.014 275.93 242.884C277.28 240.544 278.17 237.964 278.49 235.234C278.62 234.254 278.67 233.274 278.63 232.254V232.144C278.62 231.844 278.6 231.554 278.58 231.254ZM265.76 241.844C265.41 242.214 265.04 242.554 264.65 242.884C261.99 245.094 258.43 246.474 254.51 246.504C250.5 246.544 246.84 245.164 244.11 242.884C242.85 241.834 241.79 240.604 240.98 239.224C239.89 237.364 239.26 235.244 239.24 232.994C239.24 232.714 239.24 232.424 239.26 232.144C239.67 225.004 246.19 219.304 254.22 219.234C262.36 219.164 269.06 224.884 269.48 232.144C269.48 232.214 269.49 232.284 269.49 232.354C269.51 232.484 269.51 232.614 269.51 232.744C269.51 233.594 269.43 234.424 269.27 235.234C268.85 237.414 267.85 239.424 266.42 241.114C266.21 241.364 265.98 241.604 265.76 241.844Z" fill="#FF9933"/>
<path id="Vector_10" d="M251.76 208.684H248.34C247.33 208.684 246.51 207.864 246.51 206.854V206.714C246.51 205.704 247.33 204.884 248.34 204.884H251.76C252.77 204.884 253.59 205.704 253.59 206.714V206.854C253.59 207.864 252.77 208.684 251.76 208.684Z" fill="black"/>
<path id="Vector_11" d="M260.1 208.684H256.68C255.67 208.684 254.85 207.864 254.85 206.854V206.714C254.85 205.704 255.67 204.884 256.68 204.884H260.1C261.11 204.884 261.93 205.704 261.93 206.714V206.854C261.94 207.864 261.12 208.684 260.1 208.684Z" fill="black"/>
</g>
</g>
</g>
</svg>
